<?xml version="1.0" encoding="utf-8"?>
<!-- Generator: Adobe Illustrator 18.1.1, SVG Export Plug-In . SVG Version: 6.00 Build 0)  -->
<svg version="1.1" id="Layer_1" xmlns="http://www.w3.org/2000/svg" xmlns:xlink="http://www.w3.org/1999/xlink" x="0px" y="0px"
	 viewBox="0 0 242.774 75.308" enable-background="new 0 0 242.774 75.308" xml:space="preserve">
<g>
	<path fill="#A30000" d="M23.812,33.769l-13.167,4.793c0.168,2.109,0.533,4.198,1.043,6.238l12.508-4.553
		C23.79,38.137,23.646,35.953,23.812,33.769"/>
	<path fill="#A30000" d="M82,19.213c-0.919-1.898-1.982-3.728-3.213-5.454l-13.164,4.796c1.532,1.566,2.816,3.326,3.867,5.209
		L82,19.213z"/>
	<path fill="#CC0000" d="M53.035,15.483c2.736,1.277,5.11,3.021,7.109,5.066l13.167-4.791c-3.646-5.117-8.617-9.391-14.702-12.233
		C39.793-5.248,17.34,2.922,8.565,21.738c-2.838,6.086-3.894,12.556-3.4,18.817l13.167-4.789c0.216-2.853,0.914-5.71,2.191-8.45
		C26.224,15.09,40.809,9.783,53.035,15.483"/>
	<path fill="#CC0000" d="M12.51,44.504L0,49.059c1.15,4.56,3.142,8.896,5.881,12.749l13.138-4.779
		C15.648,53.566,13.403,49.183,12.51,44.504"/>
	<path fill="#CC0000" d="M67.072,39.538c-0.209,2.85-0.929,5.71-2.211,8.451C59.161,60.22,44.579,65.526,32.353,59.823
		c-2.741-1.279-5.132-3.011-7.126-5.059l-13.136,4.784c3.636,5.117,8.597,9.395,14.687,12.235
		c18.817,8.772,41.266,0.601,50.041-18.216c2.843-6.087,3.891-12.554,3.388-18.809L67.072,39.538z"/>
	<path fill="#CC0000" d="M70.309,23.466L57.801,28.02c2.323,4.166,3.422,8.957,3.062,13.772l13.138-4.776
		C73.624,32.302,72.367,27.702,70.309,23.466"/>
	<path fill="#820000" d="M23.761,36.415c-0.029-0.878-0.017-1.761,0.051-2.646l-13.167,4.793c0.066,0.846,0.175,1.683,0.302,2.517
		L23.761,36.415z"/>
	<path fill="#820000" d="M80.091,15.744c-0.416-0.672-0.844-1.338-1.303-1.985l-13.162,4.796c0.579,0.588,1.111,1.218,1.62,1.865
		L80.091,15.744z"/>
	<path fill="#A30000" d="M12.092,59.548c1.012,1.425,2.133,2.785,3.347,4.066l14.303-5.217c-1.671-1.043-3.181-2.266-4.514-3.633
		L12.092,59.548z M80.208,34.759l-13.135,4.777c-0.139,1.894-0.508,3.789-1.111,5.654l14.298-5.217
		C80.363,38.227,80.346,36.486,80.208,34.759"/>
</g>
<g>
	<path fill="#FFFFFF" d="M111.28,19.084c-0.384,1.08-0.92,1.988-1.608,2.724c-0.688,0.736-1.512,1.296-2.472,1.68
		s-2.008,0.576-3.144,0.576s-2.18-0.188-3.132-0.564c-0.952-0.376-1.772-0.928-2.46-1.656c-0.688-0.728-1.22-1.632-1.596-2.712
		s-0.564-2.316-0.564-3.708s0.192-2.628,0.576-3.708s0.92-1.988,1.608-2.724c0.688-0.736,1.512-1.296,2.472-1.68
		c0.96-0.384,2.008-0.576,3.144-0.576c1.136,0,2.18,0.188,3.132,0.564c0.952,0.376,1.768,0.928,2.448,1.656
		c0.68,0.729,1.212,1.632,1.596,2.712c0.384,1.08,0.576,2.316,0.576,3.708C111.856,16.768,111.664,18.004,111.28,19.084z
		 M106.252,11.968c-0.52-0.784-1.252-1.176-2.196-1.176c-0.944,0-1.668,0.384-2.172,1.152s-0.756,1.912-0.756,3.432
		s0.26,2.672,0.78,3.456c0.52,0.784,1.252,1.176,2.196,1.176c0.944,0,1.668-0.384,2.172-1.152s0.756-1.912,0.756-3.432
		S106.771,12.752,106.252,11.968z"/>
	<path fill="#FFFFFF" d="M128.559,15.28c-0.337,0.736-0.81,1.332-1.42,1.788s-1.335,0.784-2.178,0.984
		c-0.842,0.2-1.769,0.3-2.779,0.3h-2.334V23.8h-4.56V7h7.224c0.976,0,1.868,0.1,2.676,0.3c0.808,0.2,1.5,0.52,2.076,0.96
		c0.576,0.44,1.02,1.016,1.332,1.728s0.468,1.572,0.468,2.58C129.064,13.641,128.895,14.544,128.559,15.28z M123.973,11.296
		c-0.305-0.336-0.836-0.504-1.592-0.504h-2.533v3.768h2.46c0.772,0,1.319-0.16,1.641-0.48c0.322-0.32,0.483-0.8,0.483-1.44
		C124.432,12.081,124.279,11.632,123.973,11.296z"/>
	<path fill="#FFFFFF" d="M132.304,23.8V7h12.864v3.912h-8.256v2.256h4.968v3.84h-4.968v2.88h8.424V23.8H132.304z"/>
	<path fill="#FFFFFF" d="M159.975,23.8l-4.008-5.544c-0.192-0.256-0.417-0.572-0.672-0.948c-0.256-0.375-0.508-0.751-0.756-1.128
		c-0.248-0.375-0.48-0.732-0.696-1.068c-0.216-0.336-0.38-0.6-0.492-0.792c0.032,0.192,0.056,0.46,0.072,0.804
		c0.016,0.344,0.032,0.72,0.048,1.128c0.016,0.408,0.024,0.828,0.024,1.26s0,0.816,0,1.152V23.8h-4.464V7h4.104l3.696,4.968
		c0.192,0.256,0.42,0.576,0.684,0.96c0.264,0.384,0.524,0.768,0.78,1.152c0.256,0.384,0.488,0.744,0.696,1.08
		c0.208,0.336,0.36,0.592,0.456,0.768c-0.032-0.192-0.056-0.459-0.072-0.804s-0.032-0.72-0.048-1.128
		c-0.016-0.408-0.024-0.828-0.024-1.26s0-0.816,0-1.152V7h4.464v16.8H159.975z"/>
	<path fill="#FFFFFF" d="M180.747,21.112c-0.344,0.688-0.824,1.248-1.439,1.68c-0.616,0.432-1.349,0.752-2.196,0.96
		c-0.849,0.208-1.776,0.312-2.784,0.312c-1.36,0-2.66-0.196-3.899-0.588c-1.24-0.392-2.301-0.876-3.181-1.452l2.256-3.648
		c0.305,0.208,0.66,0.412,1.068,0.612c0.408,0.2,0.832,0.38,1.272,0.54c0.439,0.16,0.884,0.288,1.332,0.384
		c0.447,0.096,0.863,0.144,1.248,0.144c0.831,0,1.403-0.08,1.716-0.24c0.312-0.16,0.468-0.44,0.468-0.84
		c0-0.16-0.044-0.304-0.132-0.432s-0.24-0.252-0.456-0.372s-0.508-0.24-0.876-0.36c-0.368-0.12-0.832-0.244-1.393-0.372
		c-1.008-0.24-1.888-0.496-2.64-0.768s-1.376-0.612-1.872-1.02c-0.496-0.408-0.868-0.9-1.116-1.476s-0.372-1.288-0.372-2.136
		c0-0.784,0.156-1.504,0.469-2.16c0.312-0.656,0.756-1.216,1.332-1.68c0.575-0.464,1.271-0.824,2.088-1.08
		c0.815-0.255,1.728-0.384,2.735-0.384c1.44,0,2.692,0.168,3.757,0.504c1.063,0.336,2.043,0.816,2.939,1.44l-2.256,3.648
		c-0.752-0.512-1.504-0.904-2.256-1.176s-1.561-0.408-2.424-0.408c-0.704,0-1.169,0.096-1.393,0.288s-0.336,0.44-0.336,0.744
		c0,0.16,0.044,0.3,0.132,0.42s0.236,0.232,0.444,0.336c0.208,0.104,0.488,0.208,0.84,0.312c0.352,0.104,0.8,0.22,1.344,0.348
		c1.057,0.256,1.969,0.536,2.736,0.84c0.769,0.304,1.4,0.664,1.896,1.08c0.495,0.416,0.863,0.912,1.104,1.488
		c0.24,0.576,0.36,1.256,0.36,2.04C181.264,19.6,181.091,20.424,180.747,21.112z"/>
	<path fill="#FFFFFF" d="M194.896,23.8v-6.624h-5.232V23.8h-4.752V7h4.752v6.12h5.232V7h4.752v16.8H194.896z"/>
	<path fill="#FFFFFF" d="M203.895,23.8V7h4.752v16.8H203.895z"/>
	<path fill="#FFFFFF" d="M217.526,10.96v2.328h5.256v3.936h-5.256V23.8h-4.632V7h13.296v3.96H217.526z"/>
	<path fill="#FFFFFF" d="M238.07,11.056V23.8h-4.656V11.056h-4.704V7h14.064v4.056H238.07z"/>
	<path fill="#FFFFFF" d="M116.08,46.402c-0.504,1.596-1.218,2.97-2.142,4.122c-0.924,1.152-2.034,2.052-3.33,2.7
		s-2.724,0.972-4.284,0.972c-1.561,0-2.982-0.318-4.266-0.954c-1.284-0.636-2.382-1.53-3.294-2.682
		c-0.913-1.152-1.615-2.52-2.106-4.104c-0.492-1.584-0.738-3.324-0.738-5.22c0-1.896,0.252-3.642,0.756-5.238
		c0.504-1.596,1.212-2.97,2.124-4.122c0.912-1.152,2.016-2.052,3.312-2.7c1.296-0.648,2.724-0.972,4.284-0.972
		c1.56,0,2.982,0.318,4.266,0.954c1.284,0.636,2.381,1.53,3.294,2.682c0.912,1.152,1.62,2.52,2.124,4.104s0.756,3.324,0.756,5.22
		C116.836,43.061,116.584,44.807,116.08,46.402z M113.434,36.934c-0.396-1.283-0.942-2.388-1.638-3.312
		c-0.696-0.923-1.512-1.631-2.448-2.124c-0.936-0.492-1.957-0.738-3.06-0.738c-1.08,0-2.083,0.247-3.006,0.738
		c-0.924,0.492-1.723,1.188-2.394,2.088c-0.672,0.9-1.201,1.992-1.584,3.276c-0.384,1.284-0.576,2.718-0.576,4.302
		c0,1.584,0.198,3.019,0.594,4.302c0.396,1.284,0.936,2.388,1.62,3.312c0.684,0.924,1.494,1.632,2.43,2.124
		c0.936,0.492,1.956,0.738,3.06,0.738c1.08,0,2.088-0.246,3.024-0.738c0.936-0.492,1.74-1.188,2.412-2.088
		c0.671-0.9,1.2-1.992,1.584-3.276c0.383-1.283,0.576-2.718,0.576-4.302S113.83,38.218,113.434,36.934z"/>
	<path fill="#FFFFFF" d="M137.896,53.8L126.91,36.556c-0.144-0.216-0.299-0.474-0.467-0.774c-0.167-0.3-0.334-0.6-0.502-0.9
		c-0.167-0.3-0.33-0.582-0.485-0.846c-0.156-0.264-0.269-0.479-0.341-0.648v1.728V53.8h-2.736V28.6h2.736l10.908,17.568
		c0.144,0.216,0.3,0.474,0.468,0.774c0.168,0.3,0.336,0.6,0.504,0.9c0.167,0.3,0.33,0.582,0.486,0.846
		c0.156,0.264,0.27,0.48,0.342,0.648v-1.728V28.6h2.736v25.2H137.896z"/>
	<path fill="#FFFFFF" d="M147.147,53.8V28.6h2.808v22.644h12.456V53.8H147.147z"/>
	<path fill="#FFFFFF" d="M168.027,53.8V28.6h2.808v25.2H168.027z"/>
	<path fill="#FFFFFF" d="M193.154,53.8l-10.985-17.244c-0.144-0.216-0.299-0.474-0.467-0.774c-0.168-0.3-0.335-0.6-0.502-0.9
		c-0.168-0.3-0.33-0.582-0.485-0.846c-0.155-0.264-0.27-0.479-0.341-0.648v1.728V53.8h-2.736V28.6h2.736l10.908,17.568
		c0.144,0.216,0.3,0.474,0.468,0.774c0.168,0.3,0.336,0.6,0.504,0.9c0.168,0.3,0.33,0.582,0.486,0.846
		c0.155,0.264,0.27,0.48,0.342,0.648v-1.728V28.6h2.736v25.2H193.154z"/>
	<path fill="#FFFFFF" d="M202.405,53.8V28.6h15.229v2.556h-12.42v7.92h7.2v2.556h-7.2v9.612h12.96V53.8H202.405z"/>
	<path fill="#FFFFFF" d="M104.362,69.344c-0.204,0.594-0.477,1.089-0.819,1.484c-0.342,0.396-0.738,0.69-1.188,0.883
		c-0.45,0.191-0.921,0.288-1.413,0.288c-0.48,0-0.93-0.109-1.35-0.328c-0.42-0.218-0.762-0.473-1.026-0.764v0.894H96.73V59.633
		l1.836-0.954v4.583c0.348-0.314,0.72-0.578,1.116-0.791c0.396-0.212,0.846-0.318,1.35-0.318s0.978,0.097,1.422,0.288
		c0.444,0.192,0.831,0.492,1.161,0.9s0.588,0.933,0.774,1.575c0.186,0.642,0.279,1.412,0.279,2.312
		C104.668,68.045,104.566,68.75,104.362,69.344z M102.249,64.687c-0.364-0.537-0.887-0.806-1.568-0.806
		c-0.442,0-0.848,0.122-1.219,0.367c-0.371,0.244-0.675,0.521-0.914,0.832v3.955c0.107,0.144,0.239,0.287,0.394,0.43
		c0.155,0.144,0.329,0.275,0.52,0.395s0.394,0.218,0.609,0.295c0.215,0.078,0.442,0.116,0.681,0.116
		c0.669,0,1.177-0.247,1.523-0.743c0.347-0.494,0.52-1.243,0.52-2.246C102.796,66.088,102.614,65.224,102.249,64.687z"/>
	<path fill="#FFFFFF" d="M109.924,75.131h-1.962l1.368-3.511l-3.474-9.27h2.034l1.548,4.626c0.072,0.204,0.15,0.438,0.234,0.702
		c0.083,0.264,0.165,0.528,0.243,0.792s0.15,0.507,0.216,0.729c0.065,0.223,0.111,0.399,0.135,0.531
		c0.036-0.144,0.087-0.327,0.153-0.549c0.065-0.222,0.138-0.459,0.216-0.711c0.078-0.252,0.159-0.507,0.243-0.766
		c0.083-0.258,0.162-0.488,0.234-0.692l1.602-4.662h1.962L109.924,75.131z"/>
	<path fill="#FFFFFF" d="M130.606,65.41c-0.492,0.612-1.17,1.026-2.034,1.242l2.574,5.148h-2.173l-2.496-4.986h-2.837v4.986h-1.872
		V59.2h5.526c0.552,0,1.071,0.075,1.557,0.226c0.486,0.15,0.915,0.378,1.287,0.684c0.372,0.307,0.666,0.696,0.882,1.17
		c0.216,0.475,0.324,1.035,0.324,1.684C131.344,63.982,131.098,64.799,130.606,65.41z M128.853,61.505
		c-0.389-0.349-0.906-0.522-1.552-0.522h-3.661v4.05h3.661c0.634,0,1.148-0.164,1.543-0.495c0.395-0.329,0.592-0.837,0.592-1.521
		C129.436,62.356,129.241,61.853,128.853,61.505z"/>
	<path fill="#FFFFFF" d="M141.189,67.363c-0.012,0.15-0.024,0.273-0.036,0.369h-6.246c0.048,0.456,0.144,0.846,0.288,1.17
		s0.324,0.592,0.54,0.801c0.216,0.211,0.456,0.366,0.72,0.469c0.264,0.102,0.54,0.152,0.828,0.152c0.396,0,0.759-0.065,1.089-0.197
		c0.33-0.132,0.651-0.318,0.963-0.559l1.098,1.188c-0.42,0.396-0.888,0.702-1.404,0.918s-1.134,0.324-1.854,0.324
		c-0.552,0-1.077-0.108-1.575-0.324c-0.499-0.216-0.934-0.534-1.305-0.954c-0.372-0.42-0.666-0.937-0.882-1.548
		c-0.216-0.612-0.324-1.309-0.324-2.088c0-0.805,0.102-1.513,0.306-2.124c0.204-0.612,0.486-1.125,0.846-1.539
		c0.36-0.414,0.795-0.729,1.305-0.945c0.51-0.216,1.071-0.324,1.683-0.324c0.672,0,1.257,0.126,1.755,0.378s0.912,0.595,1.242,1.026
		c0.33,0.432,0.576,0.936,0.738,1.512s0.243,1.183,0.243,1.818C141.208,67.055,141.201,67.214,141.189,67.363z M139.165,65.284
		c-0.09-0.288-0.225-0.54-0.405-0.756c-0.18-0.216-0.405-0.387-0.675-0.513s-0.597-0.189-0.981-0.189
		c-0.624,0-1.119,0.207-1.485,0.621c-0.366,0.414-0.591,0.999-0.675,1.755h4.392C139.311,65.879,139.254,65.572,139.165,65.284z"/>
	<path fill="#FFFFFF" d="M149.199,71.801v-0.912c-0.348,0.315-0.72,0.579-1.116,0.791c-0.396,0.213-0.846,0.319-1.35,0.319
		c-0.504,0-0.978-0.097-1.422-0.288c-0.444-0.192-0.831-0.492-1.161-0.9s-0.588-0.933-0.774-1.575
		c-0.186-0.642-0.279-1.413-0.279-2.312c0-0.804,0.102-1.506,0.306-2.106c0.204-0.6,0.477-1.098,0.819-1.494
		c0.342-0.396,0.738-0.689,1.188-0.882c0.45-0.191,0.921-0.288,1.413-0.288c0.479,0,0.93,0.109,1.35,0.327
		c0.42,0.219,0.762,0.474,1.026,0.765v-3.609l1.836-0.956v13.122H149.199z M149.217,65.115c-0.108-0.143-0.24-0.286-0.395-0.429
		c-0.155-0.144-0.328-0.275-0.52-0.395s-0.397-0.218-0.618-0.295c-0.221-0.078-0.445-0.116-0.672-0.116
		c-0.669,0-1.177,0.247-1.523,0.742s-0.52,1.244-0.52,2.247c0,1.193,0.182,2.058,0.546,2.595c0.365,0.537,0.887,0.806,1.568,0.806
		c0.442,0,0.848-0.122,1.219-0.367c0.371-0.244,0.675-0.521,0.915-0.832V65.115z"/>
	<path fill="#FFFFFF" d="M166.587,71.801v-5.616h-5.814v5.616h-1.872V59.2h1.872v5.095h5.814V59.2h1.872v12.601H166.587z"/>
	<path fill="#FFFFFF" d="M176.9,71.801v-0.937c-0.324,0.324-0.708,0.595-1.152,0.811s-0.924,0.324-1.439,0.324
		c-0.385,0-0.771-0.058-1.161-0.172c-0.391-0.113-0.741-0.297-1.053-0.549c-0.312-0.252-0.567-0.582-0.766-0.99
		c-0.198-0.407-0.297-0.899-0.297-1.476c0-0.528,0.096-0.983,0.288-1.368c0.191-0.384,0.456-0.702,0.792-0.954
		s0.731-0.438,1.188-0.558s0.954-0.18,1.494-0.18c0.864,0,1.566,0.12,2.106,0.359V65.41c0-0.516-0.153-0.911-0.459-1.188
		s-0.747-0.414-1.323-0.414c-0.492,0-0.933,0.048-1.323,0.144c-0.39,0.097-0.771,0.246-1.143,0.45l-0.72-1.403
		c0.455-0.276,0.941-0.486,1.458-0.631c0.516-0.144,1.109-0.216,1.781-0.216c1.057,0,1.911,0.261,2.565,0.783s0.98,1.317,0.98,2.385
		v6.48H176.9z M176.9,67.769c-0.252-0.132-0.549-0.234-0.892-0.306c-0.342-0.072-0.765-0.108-1.269-0.108
		c-0.601,0-1.074,0.126-1.422,0.378c-0.349,0.252-0.522,0.594-0.522,1.026c0,0.468,0.15,0.846,0.45,1.134s0.756,0.432,1.368,0.432
		c0.504,0,0.957-0.126,1.359-0.378c0.401-0.252,0.711-0.527,0.927-0.828V67.769z"/>
	<path fill="#FFFFFF" d="M185.9,71.566c-0.228,0.132-0.495,0.237-0.801,0.315c-0.306,0.077-0.646,0.117-1.017,0.117
		c-0.66,0-1.18-0.204-1.558-0.612s-0.566-1.038-0.566-1.891v-5.453h-1.351v-1.692h1.351v-2.7l1.817-0.972v3.672h2.34v1.692h-2.34
		v5.13c0,0.443,0.075,0.744,0.226,0.899c0.149,0.156,0.398,0.234,0.747,0.234c0.239,0,0.485-0.039,0.737-0.117
		s0.462-0.165,0.63-0.261L185.9,71.566z"/>
	<path fill="#FFFFFF" d="M191.777,61.559c-0.109,0.264-0.262,0.493-0.456,0.687c-0.193,0.194-0.423,0.347-0.687,0.456
		c-0.265,0.11-0.55,0.165-0.858,0.165c-0.308,0-0.594-0.055-0.857-0.165c-0.265-0.109-0.493-0.262-0.688-0.456
		c-0.194-0.193-0.346-0.423-0.456-0.687s-0.165-0.55-0.165-0.858c0-0.308,0.055-0.594,0.165-0.857
		c0.11-0.265,0.262-0.493,0.456-0.688c0.194-0.193,0.423-0.346,0.688-0.456c0.264-0.109,0.55-0.165,0.857-0.165
		c0.309,0,0.594,0.056,0.858,0.165c0.264,0.11,0.493,0.263,0.687,0.456c0.194,0.194,0.347,0.423,0.456,0.688
		c0.11,0.264,0.165,0.55,0.165,0.857C191.942,61.009,191.888,61.295,191.777,61.559z M191.457,59.983
		c-0.093-0.222-0.221-0.415-0.385-0.579s-0.356-0.292-0.579-0.384c-0.222-0.092-0.461-0.138-0.717-0.138
		c-0.26,0-0.5,0.046-0.72,0.138s-0.412,0.22-0.576,0.384s-0.292,0.357-0.384,0.579s-0.138,0.461-0.138,0.717
		c0,0.261,0.046,0.5,0.138,0.721c0.092,0.22,0.22,0.412,0.384,0.575c0.164,0.164,0.356,0.292,0.576,0.385
		c0.22,0.092,0.46,0.138,0.72,0.138c0.256,0,0.495-0.046,0.717-0.138c0.223-0.093,0.415-0.221,0.579-0.385
		c0.164-0.163,0.292-0.355,0.385-0.575c0.092-0.221,0.138-0.46,0.138-0.721C191.595,60.444,191.549,60.205,191.457,59.983z
		 M190.623,60.646c-0.092,0.116-0.214,0.196-0.366,0.24l0.486,0.954h-0.473l-0.46-0.912h-0.454v0.912h-0.402v-2.364h1.035
		c0.104,0,0.202,0.014,0.296,0.042s0.176,0.071,0.245,0.129c0.069,0.059,0.126,0.132,0.167,0.222
		c0.042,0.091,0.063,0.197,0.063,0.321C190.761,60.379,190.715,60.53,190.623,60.646z M190.251,59.95
		c-0.072-0.056-0.162-0.084-0.271-0.084h-0.624v0.672h0.624c0.108,0,0.198-0.026,0.271-0.08c0.071-0.055,0.107-0.14,0.107-0.256
		C190.358,60.091,190.322,60.007,190.251,59.95z"/>
</g>
</svg>
